<?xml version="1.0" encoding="utf-8"?>
<!-- Generator: Adobe Illustrator 28.1.0, SVG Export Plug-In . SVG Version: 6.00 Build 0)  -->
<svg version="1.1" id="Calque_1" xmlns="http://www.w3.org/2000/svg" xmlns:xlink="http://www.w3.org/1999/xlink" x="0px" y="0px"
	 viewBox="0 0 959.12 1024" style="enable-background:new 0 0 959.12 1024;" xml:space="preserve" >
<style type="text/css">
	.st0{fill:#67B0C9;}
	.st1{fill:#52B4E7;}
	.st2{fill:#E73633;}
	.st3{fill:#86BE55;}
	.st4{fill:#922790;}
	.st5{fill:#EF892B;}
	.st6{fill:#941B80;}
</style>

<path class="st4" d="M588.37,413.85c-3.98-44.45-38.16-79.03-82.49-83.99c-28.39-3.17-53.77,4.69-76.72,21.2
	c-2.29,1.65-4.71,3.07-7.14,4.51c-37.81,22.34-59.09,54.85-59.16,99.38c-0.05,24.65,10.03,45.41,28.95,61.41
	c19.07,16.13,41.73,22.17,64.91,22.57c9.92-0.1,18.44-0.84,26.82-2.64c36.88-7.95,66.82-26.55,87.83-58.29
	C584.2,458.62,590.45,437.16,588.37,413.85z M575.84,451.81c-8.48,23.72-23.95,42.06-44.67,55.95
	c-26.3,17.64-55.25,25.64-86.94,21.94c-20.56-2.4-38.83-10.18-53.28-25.45c-16.36-17.29-22.19-38.26-20-61.56
	c2.08-22.14,11.18-41.38,25.41-58.31c0.46-0.55,0.98-1.05,1.61-1.73c0.33,1.14-0.46,1.63-0.83,2.21
	c-9.77,15.12-16.95,31.29-20.05,49.11c-1.38,7.96-1.8,15.92,1.27,23.66c0.23,0.59,0.41,1.21,0.73,1.76
	c0.68,1.15,1.48,2.84,2.83,2.43c1.1-0.34,0.99-2.18,0.82-3.44c-0.56-4.17-0.62-8.35-0.17-12.52c1.76-16.52,7.32-31.81,15.19-46.31
	c9.29-17.11,21.67-31.56,37.46-43.1c7.36-5.38,15.93-7.37,24.44-9.54c9.19-2.33,18.6-3.15,28.07-3.39c2.3-0.06,4.58-0.41,6.88-0.62
	c-0.01-0.39-0.01-0.77-0.01-1.16c-9.83-0.73-19.67-0.72-29.55-0.02c5.24-2.08,10.71-3.21,16.27-3.91
	c26.32-3.32,50.12,2.73,70.5,19.99C578.95,380.81,588.18,417.33,575.84,451.81z"/>


</svg>
