<?xml version="1.0" encoding="utf-8"?>
<!-- Generator: Adobe Illustrator 26.2.1, SVG Export Plug-In . SVG Version: 6.00 Build 0)  -->
<svg version="1.1" id="Layer_1" xmlns="http://www.w3.org/2000/svg" xmlns:xlink="http://www.w3.org/1999/xlink" x="0px" y="0px"
	 viewBox="0 0 724 1024" style="enable-background:new 0 0 724 1024;" xml:space="preserve">
<path d="M355.2,270.4c0,0.1,0.1,0.2,0.2,0.3c0,0,0.1,0,0.1,0c95.9-22.4,196.9,24.5,237.7,114.8c35.2,78,26.8,172.3-11.8,247.1
	c-54.7,106.2-179.2,177.5-299.2,140.5C163.1,736.3,90.8,607.5,112.3,486.3C134.1,364.1,228,252.4,357,241c0.4,0,0.6,0.1,0.8,0.4
	C360.8,246.2,356.3,265,355.2,270.4z M305.4,344.1c-32.5,14.7-63.1,39.6-78.8,72.4c-2.9,6.1-5,11.7-6.1,16.7
	c-2.4,10-3.9,23.5-8,34.7c-2.6,7.3-9.1,20.5-16.6,24.2c-6,2.9-7.1-4.2-6.6-8.1c8-60.7,33.7-119.8,77.4-162.9
	c0.6-0.6,0.5-0.8-0.3-0.4c-30.7,13.1-57.8,31.8-81.3,56.2c-34,35.3-51.4,79.5-46.7,128.9c8.9,92.7,78.8,176.9,167.3,204.5
	c31.7,9.9,64.2,12.3,97.5,7.2c66.5-10.1,132.2-47.1,166.7-106.5c14.6-25.2,19.7-53.8,18-81.9c-5.3-86.8-58.6-163.8-142.9-190.7
	C399.3,323.6,349.4,324.1,305.4,344.1z"/>
</svg>
